# xmcd
#
# Track frame offsets:
#	150
#	13133
#	24263
#	36495
#	47907
#	60905
#	76817
#	92277
#	104361
#	121430
#	142651
#
# Disc length: 2020 seconds
#
# Revision: 1
# Processed by: cddbd v1.5.2PL0 Copyright (c) Steve Scherf et al.
# Submitted via: audiograbber 1.83.01
#
DISCID=7d07e20b
DTITLE=Lilly of the West - Time after Time
DYEAR=2007
DGENRE=Country
TTITLE0=Once in a Very Blue Moon
TTITLE1=The End of the World
TTITLE2=Summer Fly
TTITLE3=Rough Ride
TTITLE4=A Walk in the Irish Rain
TTITLE5=The Water Is Wide
TTITLE6=Time After Time
TTITLE7=All I Have to Do Is Dream
TTITLE8=Leaving On a Jet Plane
TTITLE9=Canada Geese
TTITLE10=Oblache Le Bialo
EXTD=
EXTT0=
EXTT1=
EXTT2=
EXTT3=
EXTT4=
EXTT5=
EXTT6=
EXTT7=
EXTT8=
EXTT9=
EXTT10=
PLAYORDER=
